<svg width="77" height="25" viewBox="0 0 77 25" fill="none" xmlns="http://www.w3.org/2000/svg">
<g clip-path="url(#clip0_57_1483)">
<path d="M71.0513 7.8566e-05H5.79126C5.56853 7.8566e-05 5.34847 7.85661e-05 5.12633 0.00128727C4.94038 0.00249598 4.75591 0.00600728 4.56817 0.00896257C4.16032 0.0137381 3.75343 0.0494399 3.35103 0.115758C2.94919 0.18352 2.55995 0.31127 2.19645 0.494688C1.8334 0.679658 1.50168 0.920007 1.2133 1.20702C0.923415 1.49322 0.681772 1.82403 0.497664 2.18673C0.313049 2.54871 0.185035 2.9366 0.118046 3.33701C0.0504199 3.73691 0.0140297 4.14143 0.00920195 4.54692C0.00356537 4.73222 0.00297013 4.91813 0 5.10345V19.0726C0.00297013 19.2603 0.00356537 19.4421 0.00920195 19.6298C0.0140312 20.0353 0.0504214 20.4398 0.118046 20.8397C0.18485 21.2403 0.312871 21.6284 0.497664 21.9905C0.681688 22.3521 0.923366 22.6815 1.2133 22.9661C1.50058 23.2544 1.83253 23.4949 2.19645 23.6785C2.55994 23.8624 2.94915 23.9909 3.35103 24.0597C3.75349 24.1255 4.16035 24.1612 4.56817 24.1666C4.75591 24.1707 4.94038 24.173 5.12633 24.173C5.34847 24.1742 5.56854 24.1742 5.79126 24.1742H71.0513C71.2696 24.1742 71.4914 24.1742 71.7097 24.173C71.8948 24.173 72.0846 24.1707 72.2697 24.1666C72.6767 24.1615 73.0828 24.1258 73.4844 24.0597C73.8876 23.9904 74.2782 23.8619 74.6435 23.6785C75.0071 23.4948 75.3387 23.2543 75.6257 22.9661C75.9149 22.6804 76.1571 22.3512 76.3434 21.9905C76.5268 21.6281 76.6536 21.2401 76.7195 20.8397C76.7872 20.4397 76.8249 20.0353 76.8322 19.6298C76.8346 19.4421 76.8346 19.2603 76.8346 19.0726C76.8393 18.8531 76.8393 18.6347 76.8393 18.4116V5.76328C76.8393 5.54196 76.8393 5.32241 76.8346 5.10345C76.8346 4.91813 76.8346 4.73222 76.8322 4.5469C76.8249 4.14137 76.7872 3.73694 76.7195 3.33698C76.6535 2.9368 76.5267 2.54894 76.3434 2.1867C75.9685 1.45971 75.374 0.867946 74.6435 0.494633C74.2782 0.311664 73.8876 0.183947 73.4844 0.115704C73.0829 0.0490934 72.6768 0.013379 72.2697 0.00887796C72.0846 0.00592871 71.8948 0.0023872 71.7097 0.00120871C71.4914 0 71.2696 7.8566e-05 71.0513 7.8566e-05Z" fill="#A6A6A6"/>
<path d="M5.12931 23.6453C4.94426 23.6453 4.76366 23.643 4.58006 23.6389C4.1997 23.6339 3.82023 23.601 3.44476 23.5403C3.09466 23.4803 2.7555 23.3687 2.43848 23.2092C2.12436 23.051 1.83786 22.8435 1.58996 22.5948C1.33846 22.349 1.12908 22.0639 0.970108 21.7508C0.809387 21.4357 0.698158 21.0979 0.640296 20.7493C0.57781 20.3747 0.544003 19.9958 0.539166 19.6161C0.535315 19.4887 0.530273 19.0643 0.530273 19.0643V5.10337C0.530273 5.10337 0.535643 4.68551 0.539196 4.56275C0.543828 4.18363 0.577437 3.80541 0.639731 3.43136C0.697704 3.08175 0.809021 2.74301 0.969829 2.42686C1.12821 2.114 1.33643 1.82869 1.58641 1.582C1.83611 1.33298 2.12353 1.12446 2.43818 0.96407C2.75447 0.805055 3.09299 0.69424 3.44239 0.635338C3.81909 0.574036 4.19988 0.540893 4.58155 0.536188L5.12961 0.528809H71.7068L72.2614 0.536484C72.6396 0.540956 73.0169 0.573803 73.3901 0.634746C73.7431 0.694387 74.0851 0.805975 74.405 0.965841C75.0354 1.28908 75.5483 1.80047 75.8719 2.42834C76.0301 2.7423 76.1397 3.07828 76.1969 3.42487C76.26 3.80198 76.2953 4.18318 76.3025 4.56541C76.3043 4.73656 76.3043 4.92041 76.3043 5.10337C76.3091 5.33 76.3091 5.54571 76.3091 5.7632V18.4115C76.3091 18.6311 76.3091 18.8453 76.3043 19.0613C76.3043 19.2579 76.3043 19.4379 76.3019 19.6232C76.2948 19.9986 76.2601 20.373 76.1981 20.7434C76.1414 21.0945 76.0308 21.4349 75.8701 21.7526C75.71 22.0623 75.5018 22.3449 75.2532 22.5901C75.0051 22.8402 74.7181 23.0488 74.4033 23.208C74.0842 23.3688 73.7427 23.4808 73.3901 23.5403C73.0147 23.6013 72.6352 23.6343 72.2548 23.6389C72.0769 23.643 71.8906 23.6453 71.7097 23.6453L71.0513 23.6466L5.12931 23.6453Z" fill="black"/>
<path d="M15.0461 12.2687C15.0526 11.7643 15.1873 11.2697 15.4375 10.831C15.6878 10.3922 16.0455 10.0236 16.4774 9.75942C16.203 9.36952 15.8411 9.04864 15.4203 8.82228C14.9994 8.59591 14.5314 8.4703 14.0532 8.45542C13.0333 8.34889 12.0445 9.06269 11.5247 9.06269C10.9949 9.06269 10.1947 8.46599 9.33297 8.48364C8.77559 8.50155 8.23237 8.66283 7.75625 8.95174C7.28014 9.24066 6.88735 9.64737 6.61617 10.1322C5.44148 12.1559 6.31769 15.1299 7.44295 16.7657C8.00594 17.5667 8.66391 18.4614 9.52485 18.4296C10.3673 18.3949 10.682 17.8951 11.6989 17.8951C12.7065 17.8951 13.0017 18.4296 13.8801 18.4095C14.7841 18.3949 15.3537 17.6049 15.8969 16.7964C16.3014 16.2256 16.6127 15.5949 16.8192 14.9274C16.294 14.7064 15.8458 14.3364 15.5305 13.8636C15.2151 13.3908 15.0467 12.8361 15.0461 12.2687Z" fill="white"/>
<path d="M13.387 7.37959C13.8799 6.79082 14.1227 6.03406 14.0639 5.27002C13.3108 5.34872 12.6152 5.70683 12.1157 6.27301C11.8714 6.5496 11.6843 6.87138 11.5651 7.21996C11.4459 7.56853 11.397 7.93706 11.421 8.30448C11.7976 8.30834 12.1703 8.22711 12.5108 8.0669C12.8514 7.90669 13.1509 7.67169 13.387 7.37959Z" fill="white"/>
<path d="M21.6566 8.88487V5.78844H20.5165V5.27881H23.3571V5.78844H22.2194V8.88487H21.6566Z" fill="white"/>
<path d="M25.9747 8.1501C25.9014 8.39881 25.7425 8.61396 25.5259 8.75788C25.3092 8.90181 25.0486 8.96536 24.7896 8.93741C24.6094 8.94214 24.4304 8.9078 24.2648 8.83677C24.0993 8.76574 23.9513 8.65973 23.8311 8.52608C23.7109 8.39243 23.6214 8.23436 23.5687 8.06283C23.5161 7.8913 23.5015 7.71043 23.5262 7.53276C23.5022 7.35454 23.517 7.17328 23.5695 7.00123C23.622 6.82919 23.7111 6.67039 23.8307 6.53557C23.9502 6.40076 24.0975 6.29308 24.2626 6.21983C24.4276 6.14657 24.6065 6.10946 24.7872 6.11099C25.5483 6.11099 26.0074 6.62832 26.0074 7.48287V7.67026H24.076V7.70036C24.0676 7.80022 24.0802 7.90075 24.1131 7.99548C24.146 8.09021 24.1984 8.17706 24.2669 8.25046C24.3355 8.32387 24.4188 8.3822 24.5113 8.42172C24.6039 8.46125 24.7037 8.48109 24.8044 8.47997C24.9335 8.4954 25.0644 8.47226 25.1802 8.41352C25.2961 8.35477 25.3918 8.26306 25.4551 8.15006L25.9747 8.1501ZM24.076 7.27308H25.4575C25.4643 7.18174 25.4518 7.09 25.4209 7.00375C25.3899 6.9175 25.3412 6.83864 25.2778 6.77225C25.2144 6.70586 25.1377 6.6534 25.0527 6.61824C24.9677 6.58308 24.8763 6.566 24.7843 6.5681C24.6909 6.56693 24.5983 6.58437 24.5118 6.61939C24.4253 6.65441 24.3468 6.70629 24.2808 6.772C24.2147 6.8377 24.1626 6.91588 24.1275 7.00194C24.0923 7.088 24.0748 7.18019 24.076 7.27308ZM24.4628 5.70849L25.0933 4.84888H25.7262L25.0203 5.70849H24.4628Z" fill="white"/>
<path d="M26.7571 5.10107H27.2968V8.88478H26.7571V5.10107Z" fill="white"/>
<path d="M30.4957 8.1501C30.4224 8.39881 30.2635 8.61396 30.0468 8.75788C29.8302 8.90181 29.5696 8.96536 29.3106 8.93741C29.1304 8.94214 28.9513 8.9078 28.7858 8.83677C28.6203 8.76574 28.4723 8.65973 28.3521 8.52608C28.2319 8.39243 28.1424 8.23436 28.0897 8.06283C28.0371 7.8913 28.0225 7.71043 28.0472 7.53276C28.0232 7.35454 28.038 7.17328 28.0905 7.00123C28.143 6.82919 28.2321 6.67039 28.3517 6.53557C28.4712 6.40076 28.6185 6.29308 28.7836 6.21983C28.9486 6.14657 29.1275 6.10946 29.3082 6.11099C30.0692 6.11099 30.5283 6.62832 30.5283 7.48287V7.67026H28.597V7.70036C28.5886 7.80022 28.6012 7.90075 28.6341 7.99548C28.6669 8.09021 28.7193 8.17706 28.7879 8.25046C28.8565 8.32387 28.9397 8.3822 29.0323 8.42172C29.1249 8.46125 29.2247 8.48109 29.3254 8.47997C29.4545 8.4954 29.5853 8.47226 29.7012 8.41352C29.8171 8.35477 29.9128 8.26306 29.9761 8.15006L30.4957 8.1501ZM28.597 7.27308H29.9785C29.9853 7.18174 29.9728 7.09 29.9419 7.00375C29.9109 6.9175 29.8622 6.83864 29.7988 6.77225C29.7354 6.70586 29.6587 6.6534 29.5737 6.61824C29.4887 6.58308 29.3973 6.566 29.3052 6.5681C29.2119 6.56693 29.1192 6.58437 29.0328 6.61939C28.9463 6.65441 28.8677 6.7063 28.8017 6.772C28.7357 6.8377 28.6836 6.91588 28.6485 7.00194C28.6133 7.088 28.5958 7.18019 28.597 7.27308ZM28.9838 5.70849L29.6143 4.84888H30.2472L29.5414 5.70849H28.9838Z" fill="white"/>
<path d="M33.0439 7.0529C33.0095 6.91178 32.9254 6.78759 32.8069 6.70282C32.6884 6.61805 32.5433 6.5783 32.3979 6.59078C31.9459 6.59078 31.6695 6.93545 31.6695 7.51531C31.6695 8.1052 31.9483 8.45755 32.3979 8.45755C32.5419 8.47415 32.687 8.43784 32.8059 8.35546C32.9249 8.27307 33.0095 8.15029 33.0439 8.01019H33.5688C33.5341 8.28575 33.3926 8.53692 33.1744 8.71013C32.9562 8.88334 32.6786 8.96489 32.4009 8.93738C32.218 8.94312 32.0361 8.90904 31.8678 8.83752C31.6996 8.766 31.549 8.65877 31.4268 8.52332C31.3045 8.38788 31.2135 8.22749 31.16 8.05338C31.1066 7.87926 31.092 7.69563 31.1173 7.51533C31.0933 7.33636 31.1088 7.15432 31.1627 6.98192C31.2167 6.80953 31.3079 6.65093 31.4298 6.5172C31.5517 6.38348 31.7016 6.27785 31.8688 6.20768C32.036 6.13752 32.2166 6.10452 32.3979 6.11098C32.6779 6.08531 32.957 6.16938 33.1757 6.3453C33.3943 6.52122 33.5354 6.7751 33.5688 7.05292L33.0439 7.0529Z" fill="white"/>
<path d="M34.2854 5.10107H34.8205V6.60075H34.8632C34.9349 6.44403 35.0535 6.31313 35.2027 6.22589C35.352 6.13866 35.5246 6.09932 35.6971 6.11325C35.8295 6.10608 35.9618 6.12808 36.0847 6.17766C36.2076 6.22724 36.3179 6.30319 36.4079 6.40009C36.4978 6.49699 36.5652 6.61246 36.6052 6.73824C36.6451 6.86403 36.6567 6.99704 36.639 7.12779V8.88478H36.0987V7.26028C36.0987 6.8256 35.8952 6.60546 35.5138 6.60546C35.421 6.59789 35.3277 6.61058 35.2404 6.64265C35.1531 6.67471 35.0738 6.72537 35.0082 6.79109C34.9427 6.8568 34.8923 6.93598 34.8607 7.02309C34.829 7.1102 34.8169 7.20314 34.8252 7.29539V8.88477H34.2854L34.2854 5.10107Z" fill="white"/>
<path d="M37.3176 8.11536C37.3176 7.6255 37.6842 7.3431 38.3349 7.30297L39.0757 7.26047V7.02558C39.0757 6.73816 38.8847 6.57586 38.5158 6.57586C38.2145 6.57586 38.0057 6.68593 37.9458 6.87833H37.4232C37.4784 6.4109 37.9203 6.11108 38.5407 6.11108C39.2264 6.11108 39.6128 6.45073 39.6128 7.02558V8.88497H39.0935V8.50253H39.0508C38.9642 8.63971 38.8424 8.75155 38.6981 8.82662C38.5538 8.90168 38.392 8.93729 38.2293 8.92981C38.1145 8.94169 37.9985 8.92951 37.8887 8.89403C37.7789 8.85856 37.6778 8.80059 37.5919 8.72385C37.506 8.64712 37.4372 8.55332 37.3899 8.44852C37.3427 8.34371 37.3181 8.23022 37.3176 8.11536ZM39.0757 7.88283V7.65532L38.4078 7.69781C38.0312 7.72289 37.8604 7.85037 37.8604 8.09028C37.8604 8.33521 38.0739 8.47774 38.3675 8.47774C38.4536 8.48641 38.5405 8.47776 38.6231 8.45233C38.7057 8.42689 38.7823 8.38518 38.8484 8.32967C38.9145 8.27417 38.9686 8.20601 39.0077 8.12924C39.0468 8.05248 39.0699 7.96867 39.0757 7.88283Z" fill="white"/>
<path d="M40.458 6.16352H40.9776V6.58078H41.0179C41.0761 6.43593 41.1789 6.31315 41.3116 6.23007C41.4443 6.14699 41.6 6.10788 41.7564 6.11837C41.8373 6.11729 41.918 6.12481 41.9972 6.1408V6.67081C41.8982 6.64975 41.7972 6.63888 41.6959 6.63835C41.6069 6.6304 41.5172 6.64106 41.4325 6.66966C41.3479 6.69826 41.2702 6.74416 41.2045 6.80441C41.1387 6.86466 41.0864 6.93793 41.0508 7.01951C41.0152 7.10109 40.9971 7.18918 40.9978 7.27811V8.8849H40.458L40.458 6.16352Z" fill="white"/>
<path d="M42.4937 9.15738H43.0459C43.0916 9.35479 43.32 9.48228 43.6842 9.48228C44.1338 9.48228 44.4001 9.26981 44.4001 8.91009V8.38777H44.3598C44.2751 8.53398 44.1514 8.65405 44.0025 8.73472C43.8535 8.81539 43.6851 8.85351 43.5157 8.84487C42.8176 8.84487 42.3857 8.3078 42.3857 7.49304C42.3857 6.66326 42.8223 6.11849 43.521 6.11849C43.6946 6.11248 43.8666 6.15405 44.018 6.23867C44.1695 6.32329 44.2947 6.4477 44.3799 6.59832H44.4226V6.16364H44.9399V8.90741C44.9399 9.52977 44.4499 9.9246 43.6764 9.9246C42.9931 9.92463 42.5512 9.61979 42.4937 9.15738ZM44.4102 7.49039C44.4102 6.94828 44.1284 6.60097 43.6687 6.60097C43.2043 6.60097 42.9433 6.9483 42.9433 7.49039C42.9433 8.03277 43.2043 8.3801 43.6687 8.3801C44.1314 8.3801 44.4102 8.03545 44.4102 7.49039Z" fill="white"/>
<path d="M48.1127 8.15024C48.0393 8.39895 47.8804 8.61409 47.6638 8.75802C47.4471 8.90195 47.1865 8.9655 46.9275 8.93755C46.7474 8.94228 46.5683 8.90794 46.4028 8.83691C46.2373 8.76588 46.0893 8.65987 45.9691 8.52622C45.8488 8.39257 45.7593 8.2345 45.7067 8.06297C45.654 7.89144 45.6395 7.71057 45.6641 7.5329C45.6401 7.35468 45.6549 7.17342 45.7074 7.00137C45.76 6.82933 45.849 6.67053 45.9686 6.53571C46.0882 6.4009 46.2355 6.29322 46.4005 6.21996C46.5655 6.14671 46.7445 6.1096 46.9252 6.11113C47.6862 6.11113 48.1453 6.62846 48.1453 7.48301V7.6704H46.214V7.7005C46.2055 7.80036 46.2181 7.90089 46.251 7.99562C46.2839 8.09035 46.3363 8.1772 46.4049 8.2506C46.4735 8.32401 46.5567 8.38234 46.6493 8.42186C46.7418 8.46139 46.8417 8.48123 46.9424 8.48011C47.0715 8.49554 47.2023 8.4724 47.3182 8.41366C47.434 8.35491 47.5297 8.2632 47.5931 8.1502L48.1127 8.15024ZM46.214 7.27322H47.5954C47.6022 7.18188 47.5898 7.09014 47.5588 7.00389C47.5279 6.91764 47.4791 6.83878 47.4157 6.77239C47.3523 6.706 47.2756 6.65354 47.1906 6.61838C47.1057 6.58322 47.0142 6.56614 46.9222 6.56824C46.8288 6.56707 46.7362 6.58451 46.6497 6.61953C46.5632 6.65455 46.4847 6.70644 46.4187 6.77214C46.3527 6.83784 46.3006 6.91603 46.2654 7.00209C46.2303 7.08814 46.2128 7.18033 46.214 7.27322Z" fill="white"/>
<path d="M48.8701 6.16352H49.3898V6.58078H49.4301C49.4883 6.43593 49.5911 6.31315 49.7237 6.23007C49.8564 6.14699 50.0121 6.10788 50.1686 6.11837C50.2494 6.11729 50.3301 6.12481 50.4094 6.1408V6.67081C50.3103 6.64975 50.2094 6.63888 50.1081 6.63835C50.019 6.63039 49.9293 6.64105 49.8447 6.66965C49.76 6.69824 49.6823 6.74414 49.6166 6.80439C49.5508 6.86464 49.4985 6.93791 49.4629 7.0195C49.4273 7.10108 49.4092 7.18917 49.4099 7.27811V8.8849H48.8701V6.16352Z" fill="white"/>
<path d="M52.3544 7.52291C52.3544 6.66301 52.7986 6.11826 53.4897 6.11826C53.6606 6.11043 53.8302 6.15116 53.9788 6.23571C54.1273 6.32025 54.2485 6.44512 54.3284 6.5957H54.3687V5.10107H54.9085V8.88478H54.3913V8.45482H54.3485C54.2625 8.60439 54.137 8.7277 53.9856 8.8114C53.8343 8.89509 53.6627 8.93597 53.4897 8.92963C52.7939 8.92963 52.3544 8.38489 52.3544 7.52291ZM52.912 7.52291C52.912 8.10012 53.1854 8.44745 53.6427 8.44745C54.0977 8.44745 54.3788 8.09511 54.3788 7.52528C54.3788 6.9581 54.0947 6.60074 53.6427 6.60074C53.1883 6.60074 52.912 6.95045 52.912 7.52291Z" fill="white"/>
<path d="M55.6381 8.11536C55.6381 7.6255 56.0046 7.3431 56.6553 7.30297L57.3962 7.26047V7.02558C57.3962 6.73816 57.2052 6.57586 56.8362 6.57586C56.5349 6.57586 56.3261 6.68593 56.2662 6.87833H55.7436C55.7988 6.4109 56.2407 6.11108 56.8611 6.11108C57.5468 6.11108 57.9336 6.45073 57.9336 7.02558V8.88497H57.414V8.50253H57.3713C57.2846 8.63971 57.1629 8.75155 57.0185 8.82662C56.8742 8.90168 56.7124 8.93729 56.5497 8.92981C56.4349 8.94169 56.3189 8.9295 56.2091 8.89403C56.0993 8.85855 55.9982 8.80058 55.9123 8.72385C55.8264 8.64711 55.7576 8.55332 55.7104 8.44852C55.6632 8.34371 55.6385 8.23022 55.6381 8.11536ZM57.3962 7.88283V7.65532L56.7283 7.6978C56.3516 7.72288 56.1808 7.85037 56.1808 8.09028C56.1808 8.3352 56.3943 8.47773 56.688 8.47773C56.774 8.4864 56.8609 8.47775 56.9435 8.45232C57.0261 8.42688 57.1027 8.38517 57.1688 8.32966C57.2349 8.27416 57.2891 8.206 57.3281 8.12923C57.3672 8.05247 57.3903 7.96867 57.3962 7.88283Z" fill="white"/>
<path d="M58.7788 6.16361H59.2984V6.59592H59.3387C59.4072 6.44065 59.5226 6.31049 59.6689 6.22358C59.8152 6.13667 59.9851 6.09734 60.1549 6.11108C60.288 6.10112 60.4216 6.12109 60.5459 6.16949C60.6702 6.2179 60.7819 6.29351 60.8728 6.39071C60.9637 6.48792 61.0315 6.60423 61.0711 6.73104C61.1107 6.85785 61.1211 6.99189 61.1016 7.12325V8.88494H60.5618V7.25812C60.5618 6.82079 60.3708 6.6033 59.9716 6.6033C59.8813 6.59911 59.7911 6.61441 59.7072 6.64815C59.6234 6.6819 59.5479 6.73328 59.4858 6.79878C59.4238 6.86429 59.3767 6.94236 59.3479 7.02765C59.319 7.11294 59.309 7.20344 59.3186 7.29293V8.88497H58.7788V6.16361Z" fill="white"/>
<path d="M62.9361 6.11108C63.5512 6.11108 63.9534 6.39585 64.0062 6.87568H63.4884C63.4386 6.67589 63.2422 6.54842 62.9361 6.54842C62.6348 6.54842 62.4059 6.69065 62.4059 6.90312C62.4059 7.06569 62.5441 7.16812 62.8407 7.23569L63.295 7.34045C63.8152 7.46055 64.059 7.68305 64.059 8.08291C64.059 8.5952 63.5791 8.9375 62.9261 8.9375C62.2754 8.9375 61.8513 8.64506 61.8032 8.16288H62.3436C62.3902 8.27764 62.4741 8.37351 62.582 8.43511C62.6899 8.4967 62.8154 8.52044 62.9385 8.50252C63.2748 8.50252 63.5139 8.35264 63.5139 8.13513C63.5139 7.97283 63.3858 7.86778 63.1117 7.80286L62.6348 7.69279C62.1146 7.57032 61.8738 7.33809 61.8738 6.93321C61.8738 6.45074 62.3181 6.11108 62.9361 6.11108Z" fill="white"/>
<path d="M21.379 10.9189H22.5084V18.4241H21.379V10.9189Z" fill="white"/>
<path d="M23.8691 13.6651L24.486 10.9189H25.5834L24.836 13.6651H23.8691Z" fill="white"/>
<path d="M29.8511 16.3956H26.9761L26.2856 18.4241H25.0679L27.791 10.9189H29.0562L31.7794 18.4241H30.5409L29.8511 16.3956ZM27.2738 15.4596H29.5527L28.4293 12.1672H28.3979L27.2738 15.4596Z" fill="white"/>
<path d="M37.6599 15.6885C37.6599 17.3888 36.7452 18.4813 35.365 18.4813C35.0153 18.4995 34.6676 18.4193 34.3616 18.25C34.0556 18.0807 33.8037 17.8291 33.6347 17.524H33.6086V20.2341H32.4799V12.9521H33.5724V13.8621H33.5932C33.7699 13.5585 34.0261 13.3081 34.3344 13.1378C34.6427 12.9675 34.9917 12.8835 35.3442 12.8948C36.7399 12.8948 37.6599 13.9926 37.6599 15.6885ZM36.4997 15.6885C36.4997 14.5804 35.9243 13.8521 35.0464 13.8521C34.184 13.8521 33.6039 14.5958 33.6039 15.6885C33.6039 16.791 34.184 17.5293 35.0464 17.5293C35.9243 17.5293 36.4997 16.8063 36.4997 15.6885Z" fill="white"/>
<path d="M43.7122 15.6885C43.7122 17.3888 42.7975 18.4813 41.4173 18.4813C41.0676 18.4995 40.7199 18.4193 40.4139 18.25C40.1079 18.0807 39.856 17.8291 39.687 17.524H39.6609V20.2341H38.5325V12.9521H39.6248V13.8621H39.6455C39.8223 13.5585 40.0784 13.3081 40.3867 13.1378C40.6951 12.9675 41.044 12.8835 41.3965 12.8948C42.7922 12.8948 43.7122 13.9926 43.7122 15.6885ZM42.552 15.6885C42.552 14.5804 41.9766 13.8521 41.0987 13.8521C40.2363 13.8521 39.6562 14.5958 39.6562 15.6885C39.6562 16.791 40.2363 17.5293 41.0987 17.5293C41.9766 17.5293 42.552 16.8063 42.552 15.6885Z" fill="white"/>
<path d="M47.7124 16.3329C47.796 17.0772 48.5226 17.5658 49.5155 17.5658C50.467 17.5658 51.1515 17.0771 51.1515 16.4061C51.1515 15.8236 50.7386 15.4748 49.7611 15.2357L48.7836 15.0011C47.3986 14.6683 46.7556 14.0238 46.7556 12.978C46.7556 11.6831 47.8897 10.7937 49.5001 10.7937C51.0939 10.7937 52.1865 11.6831 52.2233 12.978H51.0838C51.0156 12.229 50.3934 11.777 49.4841 11.777C48.5748 11.777 47.9526 12.2344 47.9526 12.9001C47.9526 13.4307 48.35 13.7429 49.3222 13.9819L50.1532 14.1849C51.7007 14.5491 52.3437 15.1679 52.3437 16.2656C52.3437 17.6697 51.2197 18.5491 49.4319 18.5491C47.7592 18.5491 46.6298 17.6903 46.5569 16.3329L47.7124 16.3329Z" fill="white"/>
<path d="M54.7804 11.6572V12.9521H55.8261V13.8415H54.7804V16.8583C54.7804 17.3269 54.9898 17.5453 55.4495 17.5453C55.5736 17.5431 55.6976 17.5344 55.8208 17.5193V18.4034C55.6141 18.4418 55.404 18.4592 55.1938 18.4553C54.0805 18.4553 53.6463 18.0392 53.6463 16.9781V13.8415H52.8467V12.9521H53.6463V11.6572H54.7804Z" fill="white"/>
<path d="M56.4312 15.6885C56.4312 13.9666 57.4502 12.8848 59.0393 12.8848C60.6336 12.8848 61.6479 13.9666 61.6479 15.6885C61.6479 17.4148 60.639 18.4919 59.0393 18.4919C57.4401 18.4919 56.4312 17.4148 56.4312 15.6885ZM60.4978 15.6885C60.4978 14.5072 59.9539 13.8102 59.0392 13.8102C58.1246 13.8102 57.5813 14.5125 57.5813 15.6885C57.5813 16.8741 58.1246 17.5659 59.0392 17.5659C59.9539 17.5659 60.4978 16.8741 60.4978 15.6885Z" fill="white"/>
<path d="M62.5785 12.952H63.6551V13.8833H63.6812C63.754 13.5924 63.9253 13.3354 64.1662 13.1554C64.407 12.9753 64.7029 12.8833 65.0039 12.8947C65.134 12.8943 65.2637 12.9084 65.3907 12.9367V13.9872C65.2264 13.9372 65.0551 13.9143 64.8835 13.9193C64.7195 13.9127 64.556 13.9415 64.4042 14.0037C64.2524 14.0659 64.116 14.16 64.0043 14.2797C63.8925 14.3993 63.8081 14.5416 63.7568 14.6967C63.7056 14.8519 63.6887 15.0162 63.7073 15.1785V18.4239H62.5785L62.5785 12.952Z" fill="white"/>
<path d="M70.5945 16.8169C70.4426 17.8102 69.4704 18.4919 68.2266 18.4919C66.6268 18.4919 65.6339 17.4254 65.6339 15.7144C65.6339 13.9979 66.6322 12.8848 68.1791 12.8848C69.7006 12.8848 70.6573 13.9247 70.6573 15.584V15.9688H66.7734V16.0367C66.7554 16.238 66.7808 16.4409 66.8477 16.6318C66.9146 16.8227 67.0216 16.9972 67.1615 17.1438C67.3014 17.2904 67.4711 17.4056 67.6592 17.482C67.8473 17.5583 68.0497 17.5939 68.2527 17.5865C68.5194 17.6114 68.7871 17.5499 69.0159 17.4112C69.2447 17.2726 69.4224 17.0641 69.5226 16.8169L70.5945 16.8169ZM66.7787 15.1838H69.528C69.5381 15.0028 69.5106 14.8215 69.447 14.6516C69.3834 14.4816 69.2852 14.3265 69.1586 14.1961C69.0319 14.0656 68.8795 13.9627 68.711 13.8936C68.5424 13.8246 68.3614 13.7909 68.1791 13.7948C67.9953 13.7937 67.8131 13.8289 67.643 13.8983C67.4729 13.9676 67.3182 14.0698 67.188 14.199C67.0578 14.3281 66.9546 14.4816 66.8844 14.6507C66.8141 14.8197 66.7782 15.0009 66.7787 15.1838Z" fill="white"/>
</g>
<defs>
<clipPath id="clip0_57_1483">
<rect width="76.8393" height="24.1742" fill="white"/>
</clipPath>
</defs>
</svg>
