<svg width="82" height="25" viewBox="0 0 82 25" fill="none" xmlns="http://www.w3.org/2000/svg">
<g clip-path="url(#clip0_57_1447)">
<mask id="mask0_57_1447" style="mask-type:luminance" maskUnits="userSpaceOnUse" x="0" y="0" width="82" height="25">
<path d="M0 0H81.4759V24.1742H0V0Z" fill="white"/>
</mask>
<g mask="url(#mask0_57_1447)">
<mask id="mask1_57_1447" style="mask-type:luminance" maskUnits="userSpaceOnUse" x="0" y="0" width="82" height="25">
<path d="M0 0H81.4759V24.1742H0V0Z" fill="white"/>
</mask>
<g mask="url(#mask1_57_1447)">
<path d="M78.4582 24.1742H3.01762C2.2173 24.1742 1.44976 23.8558 0.883842 23.2891C0.317927 22.7224 0 21.9538 0 21.1524L0 3.02177C0 2.22035 0.317927 1.45175 0.883842 0.885056C1.44976 0.318364 2.2173 0 3.01762 0L78.4582 0C79.2586 0 80.0261 0.318364 80.592 0.885056C81.1579 1.45175 81.4759 2.22035 81.4759 3.02177V21.1524C81.4759 21.9538 81.1579 22.7224 80.592 23.2891C80.0261 23.8558 79.2586 24.1742 78.4582 24.1742Z" fill="black"/>
</g>
<mask id="mask2_57_1447" style="mask-type:luminance" maskUnits="userSpaceOnUse" x="0" y="0" width="82" height="25">
<path d="M0 0H81.4759V24.1742H0V0Z" fill="white"/>
</mask>
<g mask="url(#mask2_57_1447)">
<path d="M64.547 18.1306H65.6635V10.5762H64.547V18.1306ZM74.6862 13.2958L73.3886 16.5593H73.3584L72.0005 13.2958H70.7934L72.8153 17.8888L71.6685 20.4271H72.8454L75.9234 13.2958H74.6862ZM68.2888 17.2845C67.9267 17.2845 67.3835 17.073 67.3835 16.6197C67.3835 16.0456 68.0474 15.834 68.5906 15.834C69.1036 15.834 69.345 15.9247 69.6467 16.0758C69.5562 16.7708 68.9527 17.2845 68.2888 17.2845ZM68.4397 13.1447C67.6249 13.1447 66.78 13.4771 66.4179 14.2929L67.4137 14.716C67.6249 14.2929 68.0172 14.1418 68.4397 14.1418C69.0432 14.1418 69.6467 14.5045 69.6467 15.139V15.1995C69.4355 15.0786 68.9829 14.8973 68.4397 14.8973C67.3835 14.8973 66.2972 15.5016 66.2972 16.6197C66.2972 17.6169 67.1723 18.2817 68.1681 18.2817C68.9225 18.2817 69.345 17.9191 69.5864 17.5262H69.6467V18.1306H70.7331V15.2297C70.7331 13.8699 69.7373 13.1144 68.4397 13.1144V13.1447ZM61.4992 14.2023H59.8696V11.6338H61.469C62.3139 11.6338 62.7967 12.3288 62.7967 12.9331C62.7967 13.5073 62.3139 14.2023 61.469 14.2023H61.4992ZM61.4388 10.5762H58.7229V18.1306H59.8696V15.2599H61.4388C62.676 15.2599 63.9133 14.3534 63.9133 12.9331C63.9133 11.4827 62.7062 10.5762 61.4388 10.5762ZM46.7128 17.2845C45.9584 17.2845 45.2945 16.6197 45.2945 15.7132C45.2945 14.8066 45.9584 14.1721 46.743 14.1721C47.4974 14.1721 48.1009 14.8066 48.1009 15.7132C48.1009 16.6197 47.4974 17.2845 46.7128 17.2845ZM48.0104 13.7188C47.7086 13.4166 47.256 13.1447 46.6223 13.1447C45.9631 13.1758 45.3413 13.46 44.8861 13.9384C44.4309 14.4168 44.1773 15.0524 44.178 15.7132C44.178 17.1636 45.3549 18.2817 46.6223 18.2817C47.2258 18.2817 47.7388 18.0097 47.9802 17.6773H48.0104V18.0701C48.0104 19.0673 47.4974 19.581 46.6524 19.581C46.3707 19.5761 46.0968 19.4872 45.8657 19.3258C45.6346 19.1643 45.4567 18.9376 45.3549 18.6745L44.3892 19.0673C44.5711 19.5178 44.8844 19.9028 45.2881 20.1723C45.6918 20.4419 46.1673 20.5833 46.6524 20.5782C47.9802 20.5782 49.0665 19.8228 49.0665 17.9191V13.2958H48.0104V13.7188ZM49.8813 18.1306H50.9978V10.5762H49.8813V18.1306ZM52.6575 15.6527C52.6575 14.6555 53.4421 14.1418 53.9853 14.1418C54.4379 14.1418 54.8302 14.3534 54.9509 14.6858L52.6575 15.6527ZM56.158 14.7764C55.9467 14.2023 55.2828 13.1447 53.9551 13.1447C52.6273 13.1447 51.541 14.2023 51.541 15.7132C51.541 17.1636 52.6273 18.2817 54.0758 18.2817C55.2828 18.2817 55.9467 17.5564 56.2183 17.1334L55.3432 16.5593C55.2127 16.7796 55.0272 16.9623 54.8051 17.0894C54.5829 17.2165 54.3317 17.2837 54.0758 17.2845C53.5024 17.2845 53.1102 17.0125 52.8687 16.4988L56.2787 15.0786L56.158 14.7764ZM28.8183 13.9303V15.0182H31.4134C31.3531 15.6225 31.1117 16.0758 30.8099 16.4082C30.5505 16.6704 30.2395 16.8756 29.8967 17.0109C29.5538 17.1461 29.1865 17.2084 28.8183 17.1938C28.4393 17.1939 28.064 17.1186 27.7142 16.9725C27.3644 16.8263 27.047 16.6122 26.7804 16.3424C26.5138 16.0726 26.3033 15.7526 26.161 15.4008C26.0187 15.049 25.9475 14.6725 25.9515 14.2929C25.9473 13.7311 26.1078 13.1804 26.4131 12.709C26.7184 12.2377 27.1551 11.8664 27.6691 11.6412C28.1832 11.416 28.7519 11.3468 29.3048 11.4421C29.8577 11.5375 30.3706 11.7933 30.7797 12.1777L31.5341 11.392C30.9004 10.7877 30.0253 10.3042 28.8183 10.3042C26.6154 10.3042 24.7747 12.1173 24.7747 14.2929C24.7747 16.4988 26.6154 18.2817 28.8183 18.2817C30.0253 18.2817 30.9004 17.8888 31.5945 17.1636C32.2217 16.4701 32.5568 15.5606 32.53 14.6253C32.53 14.3534 32.53 14.1418 32.4696 13.9303H28.8183ZM35.4872 17.2543C34.7328 17.2543 34.0388 16.6499 34.0388 15.7434C34.0388 14.7764 34.7328 14.1721 35.4872 14.1721C36.2718 14.1721 36.9357 14.7764 36.9357 15.7132C36.9357 16.6197 36.2718 17.2845 35.4872 17.2845V17.2543ZM35.4872 13.1447C35.1493 13.1406 34.8139 13.2043 34.5009 13.3319C34.1879 13.4596 33.9035 13.6486 33.6645 13.8879C33.4255 14.1272 33.2367 14.412 33.1092 14.7255C32.9818 15.0389 32.9182 15.3747 32.9222 15.7132C32.9222 17.2241 34.0689 18.2817 35.4872 18.2817C36.9055 18.2817 38.0824 17.1938 38.0824 15.7132C38.0824 14.2023 36.9055 13.1447 35.4872 13.1447ZM41.1302 17.2845C40.3456 17.2845 39.6817 16.6197 39.6817 15.7132C39.6817 14.8066 40.3456 14.1721 41.1302 14.1721C41.8846 14.1721 42.5786 14.7764 42.5786 15.7132C42.5786 16.6197 41.8846 17.2845 41.1302 17.2845ZM41.1302 13.1447C40.7897 13.1365 40.4511 13.1972 40.1345 13.323C39.818 13.4488 39.53 13.6372 39.2878 13.8769C39.0456 14.1167 38.8541 14.4028 38.7247 14.7183C38.5954 15.0338 38.5309 15.3722 38.535 15.7132C38.535 17.2241 39.7119 18.2817 41.1302 18.2817C42.5485 18.2817 43.6952 17.1938 43.6952 15.7132C43.6952 14.2023 42.5485 13.1447 41.1302 13.1447Z" fill="white"/>
</g>
<mask id="mask3_57_1447" style="mask-type:luminance" maskUnits="userSpaceOnUse" x="0" y="0" width="82" height="25">
<path d="M0 0H81.4759V24.1742H0V0Z" fill="white"/>
</mask>
<g mask="url(#mask3_57_1447)">
<path d="M12.493 11.7244L6.06543 18.5536C6.13023 18.8162 6.25587 19.0598 6.4322 19.2647C6.60853 19.4696 6.83057 19.6301 7.08035 19.7331C7.33013 19.8361 7.60062 19.8787 7.86992 19.8575C8.13922 19.8363 8.39975 19.752 8.63041 19.6112L15.8727 15.4411L12.493 11.7244Z" fill="#EA4335"/>
</g>
<mask id="mask4_57_1447" style="mask-type:luminance" maskUnits="userSpaceOnUse" x="0" y="0" width="82" height="25">
<path d="M0 0H81.4759V24.1742H0V0Z" fill="white"/>
</mask>
<g mask="url(#mask4_57_1447)">
<path d="M19.0111 10.5762L15.8728 8.76318L12.3723 11.9058L15.9029 15.4111L18.9809 13.598C19.2453 13.4459 19.4655 13.2273 19.6195 12.9638C19.7736 12.7003 19.8563 12.4011 19.8593 12.0958C19.8624 11.7905 19.7857 11.4896 19.6369 11.2231C19.4881 10.9566 19.2724 10.7336 19.0111 10.5762Z" fill="#FBBC04"/>
</g>
<mask id="mask5_57_1447" style="mask-type:luminance" maskUnits="userSpaceOnUse" x="0" y="0" width="82" height="25">
<path d="M0 0H81.4759V24.1742H0V0Z" fill="white"/>
</mask>
<g mask="url(#mask5_57_1447)">
<path d="M6.06545 5.62061L6.03528 6.04365V18.1307L6.09563 18.5538L12.7344 11.9059L6.09563 5.62061H6.06545Z" fill="#4285F4"/>
</g>
<mask id="mask6_57_1447" style="mask-type:luminance" maskUnits="userSpaceOnUse" x="0" y="0" width="82" height="25">
<path d="M0 0H81.4759V24.1742H0V0Z" fill="white"/>
</mask>
<g mask="url(#mask6_57_1447)">
<path d="M12.5533 12.087L15.8727 8.76307L8.63041 4.56281C8.40038 4.42815 8.14267 4.34787 7.87695 4.32807C7.61123 4.30828 7.3445 4.3495 7.0971 4.4486C6.8497 4.54769 6.62816 4.70204 6.44937 4.89989C6.27058 5.09773 6.13927 5.33384 6.06543 5.59021L12.5533 12.087Z" fill="#34A853"/>
</g>
<path d="M25.2273 4.17017H26.4343C26.8266 4.17017 27.1586 4.26082 27.4302 4.41191C27.7171 4.5669 27.9568 4.79658 28.1242 5.0767C28.2751 5.37888 28.3354 5.68105 28.3354 6.04367C28.3473 6.38833 28.2748 6.73067 28.1242 7.04085C27.9432 7.34303 27.7319 7.55455 27.4302 7.70564C27.1231 7.86684 26.7811 7.94986 26.4343 7.94738H25.2273V4.17017ZM26.4343 7.37324C26.8266 7.37324 27.1586 7.25237 27.4 7.04085C27.6414 6.79911 27.7621 6.46671 27.7621 6.04367C27.7621 5.65084 27.6414 5.31844 27.4 5.0767C27.2653 4.95643 27.1075 4.86493 26.9363 4.80778C26.7651 4.75063 26.584 4.72903 26.4042 4.7443H25.8006V7.37324H26.4042H26.4343ZM29.12 4.17017H29.7236V7.94738H29.12V4.17017ZM31.7454 8.00782C31.4436 8.00782 31.1418 7.94738 30.9004 7.76607C30.6454 7.56998 30.4646 7.29296 30.3874 6.98041L30.9608 6.76889C31.0211 6.9502 31.1117 7.1315 31.2625 7.25237C31.4134 7.40346 31.5643 7.4639 31.7755 7.4639C31.9566 7.4639 32.0773 7.40346 32.2282 7.31281C32.3791 7.22216 32.4394 7.10129 32.4394 6.91998C32.4394 6.76889 32.3791 6.6178 32.2584 6.52715L31.6548 6.22497L31.4134 6.16454C31.172 6.07388 30.9608 5.92279 30.8099 5.77171C30.6288 5.62062 30.5081 5.37888 30.5081 5.10692C30.5081 4.92561 30.5987 4.77452 30.6892 4.62343C30.7797 4.44213 30.9306 4.32126 31.1117 4.2306C31.2927 4.13995 31.504 4.07952 31.7152 4.07952C31.974 4.06328 32.2311 4.13092 32.4485 4.27243C32.6659 4.41393 32.832 4.62177 32.9222 4.86518L32.3791 5.10692C32.3489 4.98605 32.2584 4.86518 32.1678 4.80474C32.0471 4.68387 31.8962 4.65365 31.7454 4.65365C31.5643 4.65365 31.4436 4.68387 31.2927 4.77452C31.172 4.86518 31.1117 4.98605 31.1117 5.10692C31.1117 5.22779 31.172 5.34866 31.2927 5.40909C31.3832 5.52996 31.5643 5.5904 31.7755 5.68105L32.017 5.74149C32.3187 5.86236 32.5903 6.01345 32.7714 6.19475C32.9222 6.37606 33.0128 6.6178 33.0128 6.91998C33.0128 7.16172 32.9524 7.37324 32.8317 7.52433C32.711 7.70564 32.5299 7.82651 32.3489 7.91716C32.1678 7.9776 31.9566 8.00782 31.7454 8.00782ZM33.7973 4.17017H35.0949C35.3047 4.17088 35.511 4.22371 35.6953 4.32391C35.8796 4.42412 36.0362 4.56857 36.1511 4.7443C36.2718 4.89539 36.3322 5.10692 36.3322 5.34866C36.3322 5.56018 36.2718 5.74149 36.1511 5.92279C36.0304 6.1041 35.8795 6.22497 35.6985 6.31562C35.5174 6.4365 35.3062 6.46671 35.0949 6.46671H34.3707V7.94738H33.7672V4.17017H33.7973ZM35.0949 5.92279C35.2458 5.92279 35.3363 5.89258 35.457 5.83214L35.6683 5.62062L35.7286 5.31844C35.7286 5.22779 35.7286 5.13713 35.6683 5.01626C35.6079 4.95583 35.5476 4.86518 35.457 4.83496C35.3363 4.77452 35.2458 4.7443 35.0949 4.7443H34.4009V5.92279H35.1251H35.0949ZM38.7463 8.03803C38.4007 8.04133 38.0607 7.95023 37.763 7.77453C37.4652 7.59883 37.2209 7.34518 37.0564 7.04085C36.8954 6.73333 36.8125 6.39086 36.815 6.04367C36.815 5.70185 36.9041 5.36595 37.0734 5.06917C37.2428 4.7724 37.4865 4.52501 37.7806 4.35147C38.0021 4.21329 38.2496 4.12224 38.5077 4.08399C38.7658 4.04573 39.029 4.0611 39.281 4.12913C39.5329 4.19716 39.7682 4.3164 39.9721 4.47942C40.176 4.64244 40.3442 4.84575 40.4663 5.0767C40.6274 5.3789 40.7117 5.7162 40.7117 6.05877C40.7117 6.40135 40.6274 6.73865 40.4663 7.04085C40.2954 7.34416 40.0446 7.59471 39.7413 7.7652C39.438 7.9357 39.0939 8.01962 38.7463 8.00782V8.03803ZM38.7463 7.43368C39.0178 7.43368 39.2291 7.40346 39.4403 7.28259C39.6515 7.16172 39.8024 6.98041 39.9231 6.76889C40.0432 6.54615 40.1054 6.29678 40.1042 6.04367C40.1042 5.77171 40.0438 5.52996 39.9231 5.31844C39.8083 5.10667 39.6381 4.93014 39.4308 4.80772C39.2235 4.6853 38.9869 4.6216 38.7463 4.62343C38.5048 4.62343 38.2936 4.71409 38.0824 4.83496C37.8711 4.95583 37.6901 5.13713 37.5694 5.31844C37.4487 5.52996 37.4185 5.77171 37.4185 6.04367C37.4185 6.34584 37.4487 6.55737 37.5694 6.76889C37.6837 6.98875 37.8628 7.16809 38.0824 7.28259C38.2936 7.40346 38.5048 7.4639 38.7463 7.4639V7.43368ZM41.4621 4.17017H42.1562L43.846 6.88976V4.17017H44.4496V7.94738H43.8159L42.0355 5.04648V7.94738H41.4621V4.17017ZM45.385 4.17017H45.9886V7.94738H45.385V4.17017ZM46.924 4.17017H48.3423C48.543 4.17202 48.74 4.22395 48.9157 4.32126C49.0665 4.38169 49.2174 4.50256 49.3079 4.68387C49.3985 4.83496 49.4588 4.98605 49.4588 5.16735C49.4689 5.33608 49.4284 5.50398 49.3423 5.6494C49.2562 5.79482 49.1287 5.91109 48.976 5.98323C49.1166 6.03017 49.244 6.10989 49.3478 6.21581C49.4516 6.32173 49.5288 6.45083 49.573 6.59247C49.6172 6.73411 49.6271 6.88424 49.602 7.03049C49.577 7.17674 49.5175 7.31493 49.4286 7.43368C49.3381 7.58477 49.1872 7.73586 49.0062 7.79629C48.8251 7.88695 48.6139 7.94738 48.4027 7.94738H46.924V4.17017ZM48.3121 5.74149C48.4932 5.74149 48.6139 5.71127 48.7346 5.5904C48.8304 5.49411 48.8842 5.36372 48.8842 5.22779C48.8842 5.09185 48.8304 4.96146 48.7346 4.86518C48.6441 4.77452 48.4932 4.71409 48.3423 4.71409H47.5275V5.74149H48.3121ZM48.4027 7.40346C48.5837 7.40346 48.7044 7.34303 48.8251 7.22216C48.8781 7.17138 48.9202 7.1104 48.949 7.04289C48.9778 6.97538 48.9926 6.90273 48.9926 6.82933C48.9926 6.75592 48.9778 6.68327 48.949 6.61576C48.9202 6.54825 48.8781 6.48727 48.8251 6.4365C48.7089 6.33365 48.5576 6.27954 48.4027 6.28541H47.4974V7.40346H48.4027ZM50.3641 4.17017H50.9676V7.37324H52.567V7.94738H50.3641V4.17017ZM53.1705 4.17017H55.4639V4.7443H53.774V5.74149H55.2828V6.34584H53.774V7.37324H55.4639V7.94738H53.1705V4.17017ZM58.5419 8.00782C58.2401 8.00782 57.9383 7.94738 57.6969 7.76607C57.442 7.56998 57.2611 7.29296 57.1839 6.98041L57.7573 6.76889C57.7875 6.9502 57.9082 7.1315 58.059 7.25237C58.1798 7.40346 58.3608 7.4639 58.5419 7.4639C58.7229 7.4639 58.904 7.40346 59.0247 7.31281C59.1454 7.22216 59.2057 7.10129 59.2057 6.91998C59.2057 6.76889 59.1454 6.6178 59.0549 6.52715L58.4513 6.22497L58.2099 6.16454C57.9685 6.07388 57.7573 5.92279 57.5762 5.77171C57.3952 5.62062 57.3348 5.37888 57.3348 5.10692C57.3348 4.92561 57.365 4.77452 57.4555 4.62343C57.5762 4.44213 57.7271 4.32126 57.9082 4.2306C58.0892 4.13995 58.2703 4.07952 58.5117 4.07952C58.8135 4.07952 59.1152 4.17017 59.2963 4.32126C59.5075 4.50256 59.598 4.68387 59.6886 4.86518L59.1454 5.10692C59.1454 4.98605 59.0549 4.86518 58.9342 4.80474C58.8436 4.68387 58.6927 4.65365 58.5117 4.65365C58.3608 4.65365 58.2099 4.68387 58.0892 4.77452C57.9685 4.86518 57.9082 4.98605 57.9082 5.10692C57.9082 5.22779 57.9685 5.34866 58.059 5.40909C58.1798 5.52996 58.3608 5.5904 58.572 5.68105L58.8135 5.74149C59.0832 5.84162 59.3296 5.99586 59.5377 6.19475C59.7187 6.37606 59.8395 6.6178 59.8395 6.91998C59.8385 7.13303 59.775 7.3411 59.657 7.51837C59.539 7.69565 59.3716 7.83431 59.1756 7.91716L58.5419 8.00782ZM61.9216 8.00782C61.6198 8.00782 61.3784 7.94738 61.1672 7.82651C60.956 7.70564 60.8051 7.52433 60.6844 7.31281C60.5614 7.05868 60.4994 6.7793 60.5033 6.49693V4.17017H61.1069V6.52715C61.1069 6.82933 61.1672 7.04085 61.2879 7.19194C61.4388 7.37324 61.65 7.4639 61.9216 7.4639C62.1932 7.4639 62.4044 7.37324 62.5251 7.19194C62.676 7.04085 62.7665 6.79911 62.7665 6.52715V4.17017H63.3701V6.49693C63.3701 6.79911 63.2795 7.07107 63.1588 7.28259C63.0575 7.50926 62.8889 7.69918 62.676 7.82651C62.4648 7.94738 62.2234 8.00782 61.9216 8.00782ZM64.2754 4.17017H65.6031C65.8143 4.17017 66.0256 4.2306 66.2066 4.32126C66.3877 4.41191 66.5084 4.563 66.6291 4.7443C66.7192 4.89465 66.7728 5.06411 66.7854 5.239C66.7981 5.4139 66.7695 5.58932 66.7019 5.75109C66.6343 5.91287 66.5297 6.05646 66.3965 6.17028C66.2633 6.28409 66.1052 6.36494 65.9351 6.40628L66.961 7.91716H66.2972L65.3013 6.46671H64.8487V7.94738H64.2452V4.17017H64.2754ZM65.5729 5.92279C65.754 5.92279 65.8747 5.86236 66.0256 5.74149C66.1463 5.65084 66.2066 5.49975 66.2066 5.31844C66.2066 5.22779 66.2066 5.13713 66.1161 5.01626L65.9049 4.80474C65.8112 4.75882 65.7072 4.738 65.6031 4.7443H64.8487V5.92279H65.5729Z" fill="white"/>
</g>
</g>
<defs>
<clipPath id="clip0_57_1447">
<rect width="81.4759" height="24.1742" fill="white"/>
</clipPath>
</defs>
</svg>
